<svg width="207" height="132" viewBox="0 0 207 132" fill="none" xmlns="http://www.w3.org/2000/svg">
<path d="M110.206 1.81722C111.625 0.362207 114.041 0.686667 114.997 2.4609L131.424 32.9182C131.991 33.9697 133.134 34.5778 134.331 34.4643L181.939 29.9497C184.62 29.6955 186.231 32.8139 184.478 34.8655L165.974 56.5198C164.652 58.0668 165.205 60.4369 167.071 61.2174L204.885 77.0358C207.709 78.2173 207.113 82.3799 204.063 82.7723L163.232 88.0258C161.217 88.285 160.018 90.4196 160.855 92.2567L172.575 117.971C173.685 120.407 171.259 122.984 168.751 122.032L124.209 105.138C123.089 104.714 121.818 104.998 120.977 105.86L96.611 130.837C95.1916 132.292 92.7763 131.968 91.8194 130.194L75.3928 99.7362C74.8257 98.6848 73.6824 98.0767 72.4858 98.1902L24.8774 102.705C22.1963 102.959 20.5861 99.8405 22.3392 97.789L40.8432 76.1347C42.1652 74.5876 41.6114 72.2176 39.7456 71.437L1.93214 55.6187C-0.892366 54.4371 -0.296179 50.2745 2.75375 49.8821L43.5852 44.6287C45.5999 44.3695 46.7989 42.2349 45.9616 40.3978L34.2419 14.6833C33.1315 12.2471 35.5573 9.67077 38.0657 10.6222L82.6079 27.516C83.7275 27.9406 84.9985 27.6569 85.8397 26.7946L110.206 1.81722Z" fill="#D2C67A"/>
</svg>
